<svg xmlns="http://www.w3.org/2000/svg" width="1000" height="700" viewBox="0 0 1000 700">
<rect width="100%" height="100%" fill="white"/>
<text x="500.0" y="35" text-anchor="middle" font-family="sans-serif" font-size="22">Lane ORAM transient stash failure tail (N = 4096)</text>
<line x1="95.0" y1="65" x2="95.0" y2="620" stroke="#dddddd"/>
<text x="95.0" y="648" text-anchor="middle" font-family="sans-serif" font-size="14">0</text>
<line x1="240.0" y1="65" x2="240.0" y2="620" stroke="#dddddd"/>
<text x="240.0" y="648" text-anchor="middle" font-family="sans-serif" font-size="14">4</text>
<line x1="385.0" y1="65" x2="385.0" y2="620" stroke="#dddddd"/>
<text x="385.0" y="648" text-anchor="middle" font-family="sans-serif" font-size="14">8</text>
<line x1="530.0" y1="65" x2="530.0" y2="620" stroke="#dddddd"/>
<text x="530.0" y="648" text-anchor="middle" font-family="sans-serif" font-size="14">12</text>
<line x1="675.0" y1="65" x2="675.0" y2="620" stroke="#dddddd"/>
<text x="675.0" y="648" text-anchor="middle" font-family="sans-serif" font-size="14">16</text>
<line x1="820.0" y1="65" x2="820.0" y2="620" stroke="#dddddd"/>
<text x="820.0" y="648" text-anchor="middle" font-family="sans-serif" font-size="14">20</text>
<line x1="965.0" y1="65" x2="965.0" y2="620" stroke="#dddddd"/>
<text x="965.0" y="648" text-anchor="middle" font-family="sans-serif" font-size="14">24</text>
<line x1="95" y1="620.0" x2="965" y2="620.0" stroke="#dddddd"/>
<text x="83" y="625.0" text-anchor="end" font-family="sans-serif" font-size="14">0</text>
<line x1="95" y1="540.7142857142858" x2="965" y2="540.7142857142858" stroke="#dddddd"/>
<text x="83" y="545.7142857142858" text-anchor="end" font-family="sans-serif" font-size="14">500</text>
<line x1="95" y1="461.42857142857144" x2="965" y2="461.42857142857144" stroke="#dddddd"/>
<text x="83" y="466.42857142857144" text-anchor="end" font-family="sans-serif" font-size="14">1000</text>
<line x1="95" y1="382.1428571428571" x2="965" y2="382.1428571428571" stroke="#dddddd"/>
<text x="83" y="387.1428571428571" text-anchor="end" font-family="sans-serif" font-size="14">1500</text>
<line x1="95" y1="302.8571428571429" x2="965" y2="302.8571428571429" stroke="#dddddd"/>
<text x="83" y="307.8571428571429" text-anchor="end" font-family="sans-serif" font-size="14">2000</text>
<line x1="95" y1="223.57142857142856" x2="965" y2="223.57142857142856" stroke="#dddddd"/>
<text x="83" y="228.57142857142856" text-anchor="end" font-family="sans-serif" font-size="14">2500</text>
<line x1="95" y1="144.2857142857143" x2="965" y2="144.2857142857143" stroke="#dddddd"/>
<text x="83" y="149.2857142857143" text-anchor="end" font-family="sans-serif" font-size="14">3000</text>
<line x1="95" y1="65.0" x2="965" y2="65.0" stroke="#dddddd"/>
<text x="83" y="70.0" text-anchor="end" font-family="sans-serif" font-size="14">3500</text>
<line x1="95" y1="65" x2="95" y2="620" stroke="black" stroke-width="2"/>
<line x1="95" y1="620" x2="965" y2="620" stroke="black" stroke-width="2"/>
<text x="530.0" y="678" text-anchor="middle" font-family="sans-serif" font-size="17">log₂(1 / per-operation failure probability)</text>
<text x="25" y="342.5" transform="rotate(-90 25 342.5)" text-anchor="middle" font-family="sans-serif" font-size="17">required stash capacity R</text>
<polyline fill="none" stroke="#0072b2" stroke-width="3" points="103.64,334.73 103.83,334.57 104.02,334.41 104.21,334.25 104.41,334.10 104.61,333.94 104.82,333.78 105.02,333.62 105.23,333.46 105.45,333.30 105.67,333.14 105.89,332.99 106.11,332.83 106.34,332.67 106.57,332.51 106.80,332.35 107.04,332.19 107.28,332.03 107.52,331.88 107.77,331.72 108.02,331.56 108.27,331.40 108.53,331.24 108.79,331.08 109.06,330.92 109.32,330.77 109.60,330.61 109.87,330.45 110.15,330.29 110.43,330.13 110.72,329.97 111.01,329.81 111.30,329.66 111.60,329.50 111.90,329.34 112.21,329.18 112.51,329.02 112.82,328.86 113.14,328.70 113.45,328.55 113.77,328.39 114.09,328.23 114.42,328.07 114.75,327.91 115.09,327.75 115.43,327.59 115.77,327.44 116.12,327.28 116.46,327.12 116.82,326.96 117.17,326.80 117.53,326.64 117.90,326.48 118.27,326.33 118.64,326.17 119.01,326.01 119.39,325.85 119.77,325.69 120.16,325.53 120.55,325.37 120.95,325.22 121.35,325.06 121.75,324.90 122.15,324.74 122.57,324.58 122.98,324.42 123.40,324.26 123.82,324.11 124.24,323.95 124.67,323.79 125.10,323.63 125.53,323.47 125.97,323.31 126.42,323.15 126.86,323.00 127.32,322.84 127.77,322.68 128.23,322.52 128.70,322.36 129.17,322.20 129.64,322.04 130.12,321.89 130.61,321.73 131.09,321.57 131.58,321.41 132.08,321.25 132.58,321.09 133.08,320.93 133.59,320.78 134.10,320.62 134.62,320.46 135.14,320.30 135.67,320.14 136.19,319.98 136.73,319.82 137.27,319.67 137.81,319.51 138.35,319.35 138.90,319.19 139.45,319.03 140.00,318.87 140.56,318.71 141.13,318.56 141.70,318.40 142.28,318.24 142.86,318.08 143.45,317.92 144.04,317.76 144.63,317.60 145.22,317.45 145.83,317.29 146.43,317.13 147.04,316.97 147.66,316.81 148.28,316.65 148.90,316.49 149.53,316.34 150.16,316.18 150.80,316.02 151.44,315.86 152.09,315.70 152.74,315.54 153.39,315.38 154.05,315.23 154.71,315.07 155.38,314.91 156.05,314.75 156.72,314.59 157.40,314.43 158.08,314.27 158.76,314.12 159.44,313.96 160.13,313.80 160.82,313.64 161.52,313.48 162.22,313.32 162.93,313.16 163.63,313.01 164.35,312.85 165.07,312.69 165.79,312.53 166.52,312.37 167.25,312.21 167.98,312.05 168.72,311.90 169.46,311.74 170.21,311.58 170.96,311.42 171.72,311.26 172.48,311.10 173.24,310.94 174.01,310.79 174.78,310.63 175.55,310.47 176.33,310.31 177.12,310.15 177.91,309.99 178.71,309.83 179.51,309.68 180.31,309.52 181.12,309.36 181.93,309.20 182.75,309.04 183.57,308.88 184.39,308.72 185.21,308.57 186.03,308.41 186.86,308.25 187.69,308.09 188.52,307.93 189.37,307.77 190.22,307.61 191.07,307.46 191.93,307.30 192.79,307.14 193.65,306.98 194.52,306.82 195.39,306.66 196.26,306.50 197.14,306.35 198.03,306.19 198.92,306.03 199.80,305.87 200.70,305.71 201.59,305.55 202.49,305.39 203.39,305.24 204.30,305.08 205.23,304.92 206.16,304.76 207.09,304.60 208.03,304.44 208.97,304.28 209.90,304.13 210.84,303.97 211.79,303.81 212.73,303.65 213.69,303.49 214.64,303.33 215.60,303.17 216.56,303.02 217.52,302.86 218.49,302.70 219.47,302.54 220.44,302.38 221.42,302.22 222.40,302.06 223.38,301.91 224.37,301.75 225.36,301.59 226.35,301.43 227.35,301.27 228.36,301.11 229.36,300.95 230.38,300.80 231.40,300.64 232.43,300.48 233.45,300.32 234.48,300.16 235.51,300.00 236.55,299.84 237.58,299.69 238.62,299.53 239.66,299.37 240.70,299.21 241.74,299.05 242.78,298.89 243.83,298.73 244.89,298.58 245.95,298.42 247.01,298.26 248.07,298.10 249.13,297.94 250.19,297.78 251.25,297.62 252.32,297.47 253.39,297.31 254.46,297.15 255.53,296.99 256.61,296.83 257.70,296.67 258.78,296.51 259.88,296.36 260.97,296.20 262.07,296.04 263.16,295.88 264.26,295.72 265.36,295.56 266.47,295.40 267.57,295.25 268.68,295.09 269.78,294.93 270.90,294.77 272.01,294.61 273.13,294.45 274.25,294.29 275.39,294.14 276.52,293.98 277.67,293.82 278.80,293.66 279.93,293.50 281.05,293.34 282.17,293.18 283.30,293.03 284.42,292.87 285.55,292.71 286.69,292.55 287.84,292.39 289.01,292.23 290.17,292.07 291.34,291.92 292.51,291.76 293.68,291.60 294.85,291.44 296.02,291.28 297.21,291.12 298.38,290.96 299.55,290.81 300.73,290.65 301.90,290.49 303.08,290.33 304.27,290.17 305.45,290.01 306.64,289.85 307.81,289.70 308.99,289.54 310.16,289.38 311.33,289.22 312.50,289.06 313.69,288.90 314.87,288.74 316.06,288.59 317.24,288.43 318.41,288.27 319.59,288.11 320.78,287.95 321.97,287.79 323.16,287.63 324.36,287.48 325.55,287.32 326.77,287.16 328.01,287.00 329.24,286.84 330.48,286.68 331.71,286.52 332.95,286.37 334.20,286.21 335.44,286.05 336.69,285.89 337.93,285.73 339.18,285.57 340.45,285.41 341.72,285.26 342.99,285.10 344.24,284.94 345.47,284.78 346.71,284.62 347.96,284.46 349.23,284.30 350.46,284.15 351.73,283.99 353.00,283.83 354.28,283.67 355.58,283.51 356.86,283.35 358.15,283.19 359.47,283.04 360.79,282.88 362.12,282.72 363.47,282.56 364.82,282.40 366.17,282.24 367.54,282.08 368.88,281.93 370.24,281.77 371.57,281.61 372.94,281.45 374.31,281.29 375.69,281.13 377.06,280.97 378.41,280.82 379.74,280.66 381.05,280.50 382.34,280.34 383.64,280.18 384.94,280.02 386.26,279.86 387.53,279.71 388.86,279.55 390.14,279.39 391.42,279.23 392.70,279.07 394.01,278.91 395.34,278.75 396.67,278.60 397.99,278.44 399.28,278.28 400.56,278.12 401.81,277.96 403.06,277.80 404.32,277.64 405.61,277.49 406.89,277.33 408.16,277.17 409.45,277.01 410.72,276.85 412.04,276.69 413.38,276.53 414.71,276.38 416.04,276.22 417.39,276.06 418.75,275.90 420.05,275.74 421.37,275.58 422.68,275.42 424.02,275.27 425.40,275.11 426.78,274.95 428.15,274.79 429.52,274.63 430.92,274.47 432.33,274.31 433.69,274.16 435.10,274.00 436.47,273.84 437.83,273.68 439.23,273.52 440.54,273.36 441.83,273.20 443.08,273.05 444.42,272.89 445.75,272.73 447.16,272.57 448.51,272.41 449.94,272.25 451.33,272.09 452.76,271.94 454.20,271.78 455.65,271.62 457.06,271.46 458.47,271.30 459.90,271.14 461.33,270.98 462.80,270.83 464.26,270.67 465.68,270.51 467.03,270.35 468.36,270.19 469.72,270.03 471.13,269.87 472.54,269.72 473.92,269.56 475.31,269.40 476.77,269.24 478.17,269.08 479.59,268.92 481.01,268.76 482.34,268.61 483.70,268.45 484.97,268.29 486.29,268.13 487.61,267.97 488.90,267.81 490.17,267.65 491.46,267.50 492.75,267.34 494.01,267.18 495.38,267.02 496.67,266.86 497.99,266.70 499.34,266.54 500.73,266.39 502.13,266.23 503.45,266.07 504.88,265.91 506.25,265.75 507.60,265.59 509.01,265.43 510.42,265.28 511.87,265.12 513.35,264.96 514.75,264.80 516.17,264.64 517.71,264.48 519.38,264.32 521.07,264.17 522.73,264.01 524.29,263.85 525.86,263.69 527.46,263.53 529.04,263.37 530.66,263.21 532.19,263.06 533.78,262.90 535.57,262.74 537.30,262.58 539.17,262.42 541.13,262.26 542.97,262.10 544.73,261.95 546.41,261.79 547.98,261.63 549.58,261.47 551.29,261.31 553.08,261.15 554.90,260.99 556.70,260.84 558.51,260.68 560.39,260.52 562.27,260.36 564.25,260.20 566.28,260.04 568.18,259.88 570.49,259.73 572.96,259.57 575.17,259.41 577.45,259.25 579.64,259.09 581.69,258.93 583.57,258.77 585.49,258.62 587.63,258.46 589.65,258.30 591.93,258.14 594.21,257.98 596.42,257.82 598.79,257.66 601.19,257.51 603.48,257.35 606.26,257.19 609.21,257.03 612.13,256.87 615.03,256.71 617.93,256.55 620.42,256.40 622.96,256.24 625.33,256.08 628.53,255.92 630.91,255.76 633.45,255.60 636.29,255.44 639.01,255.29 641.54,255.13 644.87,254.97 648.00,254.81 651.76,254.65 654.97,254.49 658.20,254.33 663.02,254.18 666.88,254.02 670.99,253.86 674.57,253.70 678.24,253.54 682.33,253.38 686.11,253.22 690.11,253.07 694.11,252.91 698.37,252.75 704.01,252.59 709.05,252.43 714.95,252.27 720.44,252.11 726.84,251.96 732.81,251.80 737.74,251.64 745.01,251.48 750.44,251.32 754.60,251.16 761.73,251.00 767.84,250.85 775.63,250.69 785.41,250.53 794.11,250.37 802.75,250.21 809.32,250.05 821.66,249.89 830.36,249.74 843.93,249.58 861.40,249.42 880.83,249.26 907.55,249.10 965.00,248.94"/>
<polyline fill="none" stroke="#d55e00" stroke-width="3" points="103.67,176.16 103.92,176.00 104.18,175.84 104.44,175.68 104.70,175.52 104.98,175.37 105.25,175.21 105.54,175.05 105.83,174.89 106.12,174.73 106.42,174.57 106.73,174.41 107.04,174.26 107.35,174.10 107.68,173.94 108.01,173.78 108.34,173.62 108.68,173.46 109.03,173.30 109.39,173.15 109.75,172.99 110.11,172.83 110.49,172.67 110.87,172.51 111.25,172.35 111.64,172.19 112.04,172.04 112.44,171.88 112.85,171.72 113.27,171.56 113.69,171.40 114.12,171.24 114.56,171.08 115.01,170.93 115.46,170.77 115.92,170.61 116.38,170.45 116.85,170.29 117.33,170.13 117.81,169.97 118.31,169.82 118.81,169.66 119.32,169.50 119.84,169.34 120.37,169.18 120.90,169.02 121.44,168.86 121.99,168.71 122.54,168.55 123.10,168.39 123.67,168.23 124.25,168.07 124.84,167.91 125.43,167.75 126.03,167.60 126.63,167.44 127.25,167.28 127.87,167.12 128.51,166.96 129.14,166.80 129.79,166.64 130.44,166.49 131.11,166.33 131.78,166.17 132.45,166.01 133.14,165.85 133.83,165.69 134.54,165.53 135.25,165.38 135.97,165.22 136.69,165.06 137.43,164.90 138.17,164.74 138.92,164.58 139.68,164.42 140.45,164.27 141.22,164.11 142.00,163.95 142.79,163.79 143.59,163.63 144.39,163.47 145.20,163.31 146.01,163.16 146.84,163.00 147.67,162.84 148.51,162.68 149.36,162.52 150.22,162.36 151.09,162.20 151.96,162.05 152.85,161.89 153.74,161.73 154.64,161.57 155.56,161.41 156.48,161.25 157.41,161.09 158.35,160.94 159.30,160.78 160.25,160.62 161.21,160.46 162.18,160.30 163.15,160.14 164.14,159.98 165.14,159.83 166.14,159.67 167.15,159.51 168.17,159.35 169.19,159.19 170.22,159.03 171.27,158.87 172.32,158.72 173.38,158.56 174.44,158.40 175.51,158.24 176.59,158.08 177.68,157.92 178.77,157.76 179.87,157.61 180.98,157.45 182.09,157.29 183.21,157.13 184.34,156.97 185.48,156.81 186.63,156.65 187.78,156.50 188.93,156.34 190.10,156.18 191.29,156.02 192.47,155.86 193.67,155.70 194.87,155.54 196.09,155.39 197.31,155.23 198.55,155.07 199.78,154.91 201.02,154.75 202.26,154.59 203.51,154.43 204.78,154.28 206.05,154.12 207.32,153.96 208.61,153.80 209.92,153.64 211.23,153.48 212.55,153.32 213.87,153.17 215.20,153.01 216.55,152.85 217.90,152.69 219.27,152.53 220.65,152.37 222.04,152.21 223.45,152.06 224.86,151.90 226.28,151.74 227.70,151.58 229.13,151.42 230.57,151.26 232.01,151.10 233.46,150.95 234.91,150.79 236.37,150.63 237.84,150.47 239.31,150.31 240.81,150.15 242.31,149.99 243.83,149.84 245.35,149.68 246.89,149.52 248.42,149.36 249.96,149.20 251.50,149.04 253.04,148.88 254.58,148.73 256.11,148.57 257.65,148.41 259.19,148.25 260.72,148.09 262.26,147.93 263.81,147.77 265.37,147.62 266.93,147.46 268.51,147.30 270.09,147.14 271.65,146.98 273.24,146.82 274.85,146.66 276.46,146.51 278.08,146.35 279.71,146.19 281.34,146.03 282.96,145.87 284.60,145.71 286.24,145.55 287.88,145.40 289.53,145.24 291.19,145.08 292.84,144.92 294.52,144.76 296.23,144.60 297.92,144.44 299.64,144.29 301.36,144.13 303.09,143.97 304.81,143.81 306.57,143.65 308.32,143.49 310.06,143.33 311.84,143.18 313.63,143.02 315.41,142.86 317.20,142.70 319.00,142.54 320.81,142.38 322.60,142.22 324.39,142.07 326.18,141.91 328.00,141.75 329.85,141.59 331.71,141.43 333.60,141.27 335.47,141.11 337.33,140.96 339.23,140.80 341.11,140.64 343.00,140.48 344.90,140.32 346.78,140.16 348.62,140.00 350.51,139.85 352.44,139.69 354.38,139.53 356.31,139.37 358.27,139.21 360.27,139.05 362.26,138.89 364.25,138.74 366.26,138.58 368.26,138.42 370.28,138.26 372.34,138.10 374.41,137.94 376.51,137.78 378.53,137.63 380.59,137.47 382.71,137.31 384.87,137.15 387.07,136.99 389.23,136.83 391.33,136.67 393.44,136.52 395.54,136.36 397.60,136.20 399.69,136.04 401.77,135.88 403.83,135.72 405.93,135.56 408.11,135.41 410.24,135.25 412.47,135.09 414.71,134.93 416.92,134.77 419.07,134.61 421.29,134.45 423.50,134.30 425.75,134.14 428.06,133.98 430.42,133.82 432.73,133.66 435.02,133.50 437.27,133.34 439.56,133.19 441.73,133.03 443.98,132.87 446.27,132.71 448.64,132.55 451.05,132.39 453.42,132.23 455.87,132.08 458.30,131.92 460.66,131.76 463.20,131.60 465.72,131.44 468.34,131.28 470.89,131.12 473.37,130.97 475.89,130.81 478.45,130.65 480.99,130.49 483.55,130.33 486.06,130.17 488.66,130.01 491.33,129.86 494.16,129.70 496.89,129.54 499.61,129.38 502.27,129.22 505.05,129.06 507.68,128.90 510.43,128.75 513.42,128.59 516.38,128.43 518.91,128.27 521.67,128.11 524.36,127.95 526.90,127.79 529.52,127.64 532.16,127.48 534.70,127.32 537.12,127.16 539.67,127.00 542.50,126.84 545.13,126.68 547.53,126.53 550.12,126.37 552.66,126.21 555.37,126.05 558.12,125.89 560.71,125.73 563.06,125.57 566.05,125.42 568.92,125.26 571.44,125.10 574.19,124.94 576.89,124.78 579.57,124.62 582.25,124.46 585.04,124.31 587.70,124.15 590.60,123.99 593.15,123.83 595.75,123.67 598.36,123.51 600.91,123.35 603.41,123.20 605.97,123.04 608.35,122.88 610.43,122.72 612.07,122.56 613.48,122.40 615.00,122.24 616.92,122.09 618.94,121.93 621.25,121.77 622.82,121.61 624.57,121.45 626.39,121.29 628.10,121.13 629.70,120.98 631.99,120.82 634.13,120.66 636.04,120.50 637.58,120.34 639.01,120.18 640.37,120.02 641.89,119.87 642.96,119.71 644.46,119.55 645.62,119.39 646.71,119.23 648.18,119.07 649.30,118.91 650.15,118.76 650.62,118.60 651.16,118.44 652.17,118.28 653.30,118.12 654.71,117.96 656.38,117.80 658.05,117.65 659.89,117.49 661.76,117.33 663.53,117.17 666.01,117.01 667.45,116.85 669.14,116.69 670.64,116.54 672.34,116.38 674.24,116.22 675.59,116.06 677.70,115.90 679.34,115.74 681.55,115.58 683.76,115.43 687.78,115.27 690.11,115.11 691.29,114.95 692.63,114.79 694.71,114.63 696.87,114.47 700.11,114.32 703.31,114.16 706.42,114.00 709.00,113.84 713.39,113.68 717.19,113.52 721.05,113.36 725.96,113.21 731.82,113.05 735.91,112.89 741.70,112.73 745.30,112.57 747.30,112.41 749.80,112.25 752.76,112.10 755.19,111.94 759.50,111.78 764.21,111.62 768.15,111.46 772.24,111.30 775.28,111.14 778.32,110.99 781.94,110.83 789.58,110.67 795.62,110.51 799.34,110.35 812.76,110.19 825.60,110.03 835.05,109.88 847.26,109.72 850.82,109.56 856.25,109.40 866.11,109.24 882.15,109.08 917.08,108.92 925.58,108.77 935.73,108.61 948.35,108.45"/>
<polyline fill="none" stroke="#e69f00" stroke-width="3" points="103.68,216.28 103.91,216.12 104.13,215.96 104.37,215.80 104.61,215.64 104.85,215.48 105.09,215.33 105.34,215.17 105.60,215.01 105.86,214.85 106.13,214.69 106.40,214.53 106.67,214.37 106.95,214.22 107.24,214.06 107.53,213.90 107.82,213.74 108.12,213.58 108.43,213.42 108.73,213.26 109.05,213.11 109.36,212.95 109.69,212.79 110.02,212.63 110.35,212.47 110.69,212.31 111.03,212.15 111.38,212.00 111.74,211.84 112.10,211.68 112.46,211.52 112.83,211.36 113.21,211.20 113.59,211.04 113.97,210.89 114.36,210.73 114.76,210.57 115.17,210.41 115.57,210.25 115.99,210.09 116.41,209.93 116.84,209.78 117.27,209.62 117.71,209.46 118.15,209.30 118.60,209.14 119.06,208.98 119.52,208.82 119.98,208.67 120.45,208.51 120.93,208.35 121.41,208.19 121.90,208.03 122.39,207.87 122.89,207.71 123.39,207.56 123.90,207.40 124.42,207.24 124.94,207.08 125.47,206.92 126.01,206.76 126.56,206.60 127.11,206.45 127.67,206.29 128.23,206.13 128.81,205.97 129.39,205.81 129.97,205.65 130.56,205.49 131.16,205.34 131.77,205.18 132.38,205.02 133.00,204.86 133.62,204.70 134.25,204.54 134.89,204.38 135.54,204.23 136.19,204.07 136.85,203.91 137.52,203.75 138.19,203.59 138.87,203.43 139.56,203.27 140.25,203.12 140.95,202.96 141.66,202.80 142.37,202.64 143.10,202.48 143.83,202.32 144.56,202.16 145.30,202.01 146.04,201.85 146.80,201.69 147.56,201.53 148.33,201.37 149.10,201.21 149.89,201.05 150.68,200.90 151.48,200.74 152.29,200.58 153.11,200.42 153.93,200.26 154.76,200.10 155.60,199.94 156.44,199.79 157.29,199.63 158.15,199.47 159.01,199.31 159.88,199.15 160.75,198.99 161.63,198.83 162.51,198.68 163.41,198.52 164.31,198.36 165.21,198.20 166.13,198.04 167.04,197.88 167.97,197.72 168.91,197.57 169.85,197.41 170.80,197.25 171.76,197.09 172.73,196.93 173.70,196.77 174.68,196.61 175.67,196.46 176.67,196.30 177.67,196.14 178.68,195.98 179.69,195.82 180.71,195.66 181.73,195.50 182.76,195.35 183.79,195.19 184.83,195.03 185.88,194.87 186.94,194.71 188.00,194.55 189.06,194.39 190.12,194.24 191.20,194.08 192.28,193.92 193.36,193.76 194.46,193.60 195.57,193.44 196.69,193.28 197.82,193.13 198.95,192.97 200.08,192.81 201.23,192.65 202.39,192.49 203.56,192.33 204.73,192.17 205.91,192.02 207.10,191.86 208.29,191.70 209.49,191.54 210.69,191.38 211.91,191.22 213.13,191.06 214.36,190.91 215.60,190.75 216.83,190.59 218.09,190.43 219.34,190.27 220.61,190.11 221.88,189.95 223.17,189.80 224.46,189.64 225.75,189.48 227.05,189.32 228.35,189.16 229.65,189.00 230.96,188.84 232.28,188.69 233.61,188.53 234.94,188.37 236.28,188.21 237.61,188.05 238.96,187.89 240.31,187.73 241.65,187.58 243.02,187.42 244.40,187.26 245.79,187.10 247.18,186.94 248.58,186.78 249.99,186.62 251.40,186.47 252.81,186.31 254.24,186.15 255.67,185.99 257.12,185.83 258.58,185.67 260.05,185.51 261.52,185.36 263.00,185.20 264.48,185.04 265.97,184.88 267.46,184.72 268.95,184.56 270.46,184.40 271.96,184.25 273.49,184.09 275.04,183.93 276.60,183.77 278.17,183.61 279.74,183.45 281.34,183.29 282.94,183.14 284.53,182.98 286.13,182.82 287.74,182.66 289.36,182.50 290.98,182.34 292.60,182.18 294.22,182.03 295.85,181.87 297.49,181.71 299.12,181.55 300.74,181.39 302.40,181.23 304.07,181.07 305.74,180.92 307.42,180.76 309.11,180.60 310.80,180.44 312.51,180.28 314.24,180.12 315.98,179.96 317.70,179.81 319.42,179.65 321.15,179.49 322.94,179.33 324.70,179.17 326.47,179.01 328.24,178.85 330.03,178.70 331.81,178.54 333.60,178.38 335.40,178.22 337.24,178.06 339.08,177.90 340.92,177.74 342.76,177.59 344.63,177.43 346.52,177.27 348.43,177.11 350.32,176.95 352.21,176.79 354.13,176.63 356.05,176.48 357.99,176.32 359.90,176.16 361.80,176.00 363.73,175.84 365.64,175.68 367.58,175.52 369.50,175.37 371.45,175.21 373.36,175.05 375.26,174.89 377.17,174.73 379.11,174.57 381.02,174.41 382.94,174.26 384.87,174.10 386.83,173.94 388.81,173.78 390.75,173.62 392.67,173.46 394.61,173.30 396.64,173.15 398.64,172.99 400.68,172.83 402.71,172.67 404.74,172.51 406.81,172.35 408.88,172.19 410.94,172.04 413.01,171.88 415.08,171.72 417.11,171.56 419.21,171.40 421.26,171.24 423.38,171.08 425.43,170.93 427.50,170.77 429.61,170.61 431.65,170.45 433.69,170.29 435.74,170.13 437.77,169.97 439.82,169.82 441.89,169.66 444.02,169.50 446.11,169.34 448.24,169.18 450.46,169.02 452.62,168.86 454.83,168.71 456.99,168.55 459.12,168.39 461.28,168.23 463.35,168.07 465.36,167.91 467.38,167.75 469.40,167.60 471.39,167.44 473.50,167.28 475.54,167.12 477.69,166.96 479.76,166.80 481.74,166.64 483.62,166.49 485.65,166.33 487.65,166.17 489.64,166.01 491.78,165.85 493.79,165.69 495.82,165.53 497.93,165.38 499.96,165.22 501.84,165.06 503.80,164.90 505.68,164.74 507.53,164.58 509.26,164.42 511.08,164.27 513.08,164.11 515.00,163.95 517.14,163.79 519.24,163.63 521.22,163.47 523.31,163.31 525.26,163.16 527.20,163.00 529.26,162.84 531.21,162.68 532.94,162.52 534.70,162.36 536.63,162.20 538.69,162.05 540.94,161.89 543.06,161.73 545.00,161.57 546.90,161.41 548.95,161.25 551.08,161.09 553.33,160.94 555.51,160.78 557.99,160.62 560.47,160.46 562.73,160.30 565.11,160.14 567.54,159.98 569.60,159.83 571.81,159.67 574.03,159.51 576.04,159.35 577.88,159.19 579.70,159.03 581.65,158.87 583.42,158.72 585.50,158.56 587.31,158.40 589.16,158.24 591.13,158.08 592.97,157.92 594.74,157.76 596.44,157.61 598.23,157.45 600.17,157.29 602.56,157.13 605.21,156.97 607.67,156.81 609.92,156.65 612.09,156.50 614.24,156.34 616.33,156.18 618.19,156.02 620.53,155.86 622.54,155.70 624.85,155.54 627.97,155.39 630.62,155.23 633.63,155.07 636.59,154.91 639.48,154.75 641.37,154.59 643.20,154.43 645.10,154.28 646.84,154.12 648.03,153.96 649.30,153.80 650.66,153.64 652.48,153.48 654.34,153.32 656.34,153.17 658.62,153.01 660.43,152.85 661.72,152.69 663.27,152.53 664.70,152.37 666.27,152.21 667.50,152.06 668.30,151.90 669.14,151.74 670.22,151.58 671.78,151.42 673.89,151.26 675.90,151.10 679.23,150.95 681.90,150.79 684.59,150.63 687.04,150.47 688.87,150.31 691.01,150.15 693.53,149.99 697.18,149.84 700.57,149.68 703.00,149.52 706.19,149.36 708.08,149.20 710.24,149.04 713.39,148.88 716.29,148.73 719.12,148.57 722.23,148.41 727.68,148.25 731.52,148.09 736.74,147.93 741.34,147.77 746.29,147.62 750.98,147.46 755.07,147.30 762.82,147.14 770.00,146.98 785.83,146.82 802.46,146.66 822.94,146.51 830.36,146.35 839.00,146.19 857.07,146.03 884.91,145.87 965.00,145.71"/>
<polyline fill="none" stroke="#cc79a7" stroke-width="3" points="103.57,147.14 103.84,146.98 104.11,146.82 104.39,146.66 104.67,146.51 104.97,146.35 105.26,146.19 105.57,146.03 105.88,145.87 106.19,145.71 106.52,145.55 106.85,145.40 107.19,145.24 107.53,145.08 107.88,144.92 108.25,144.76 108.61,144.60 108.99,144.44 109.37,144.29 109.76,144.13 110.16,143.97 110.57,143.81 110.99,143.65 111.41,143.49 111.84,143.33 112.28,143.18 112.73,143.02 113.18,142.86 113.64,142.70 114.11,142.54 114.59,142.38 115.08,142.22 115.57,142.07 116.07,141.91 116.58,141.75 117.10,141.59 117.63,141.43 118.17,141.27 118.72,141.11 119.28,140.96 119.85,140.80 120.43,140.64 121.01,140.48 121.61,140.32 122.21,140.16 122.82,140.00 123.44,139.85 124.07,139.69 124.71,139.53 125.36,139.37 126.02,139.21 126.68,139.05 127.36,138.89 128.05,138.74 128.75,138.58 129.45,138.42 130.16,138.26 130.89,138.10 131.62,137.94 132.36,137.78 133.11,137.63 133.87,137.47 134.64,137.31 135.42,137.15 136.21,136.99 137.02,136.83 137.83,136.67 138.65,136.52 139.48,136.36 140.33,136.20 141.18,136.04 142.04,135.88 142.91,135.72 143.79,135.56 144.69,135.41 145.59,135.25 146.50,135.09 147.42,134.93 148.36,134.77 149.30,134.61 150.26,134.45 151.22,134.30 152.20,134.14 153.20,133.98 154.20,133.82 155.22,133.66 156.24,133.50 157.27,133.34 158.32,133.19 159.37,133.03 160.44,132.87 161.53,132.71 162.62,132.55 163.72,132.39 164.83,132.23 165.96,132.08 167.10,131.92 168.25,131.76 169.42,131.60 170.59,131.44 171.78,131.28 172.98,131.12 174.19,130.97 175.41,130.81 176.64,130.65 177.88,130.49 179.14,130.33 180.40,130.17 181.68,130.01 182.97,129.86 184.27,129.70 185.58,129.54 186.90,129.38 188.23,129.22 189.58,129.06 190.94,128.90 192.31,128.75 193.69,128.59 195.07,128.43 196.46,128.27 197.87,128.11 199.28,127.95 200.71,127.79 202.16,127.64 203.61,127.48 205.08,127.32 206.55,127.16 208.04,127.00 209.54,126.84 211.07,126.68 212.60,126.53 214.13,126.37 215.66,126.21 217.21,126.05 218.76,125.89 220.33,125.73 221.92,125.57 223.52,125.42 225.11,125.26 226.74,125.10 228.39,124.94 230.05,124.78 231.73,124.62 233.41,124.46 235.10,124.31 236.80,124.15 238.51,123.99 240.25,123.83 241.99,123.67 243.77,123.51 245.55,123.35 247.36,123.20 249.18,123.04 251.03,122.88 252.90,122.72 254.78,122.56 256.66,122.40 258.56,122.24 260.44,122.09 262.32,121.93 264.21,121.77 266.11,121.61 268.02,121.45 269.93,121.29 271.86,121.13 273.81,120.98 275.75,120.82 277.71,120.66 279.70,120.50 281.70,120.34 283.72,120.18 285.72,120.02 287.73,119.87 289.75,119.71 291.79,119.55 293.85,119.39 295.92,119.23 298.00,119.07 300.12,118.91 302.24,118.76 304.35,118.60 306.49,118.44 308.64,118.28 310.78,118.12 312.92,117.96 315.08,117.80 317.28,117.65 319.51,117.49 321.72,117.33 323.96,117.17 326.23,117.01 328.46,116.85 330.69,116.69 332.96,116.54 335.27,116.38 337.56,116.22 339.87,116.06 342.26,115.90 344.64,115.74 347.05,115.58 349.48,115.43 351.91,115.27 354.36,115.11 356.78,114.95 359.23,114.79 361.64,114.63 364.01,114.47 366.44,114.32 368.94,114.16 371.48,114.00 374.06,113.84 376.64,113.68 379.22,113.52 381.80,113.36 384.38,113.21 387.01,113.05 389.57,112.89 392.21,112.73 394.90,112.57 397.60,112.41 400.29,112.25 402.90,112.10 405.57,111.94 408.21,111.78 410.82,111.62 413.41,111.46 416.05,111.30 418.76,111.14 421.48,110.99 424.22,110.83 426.93,110.67 429.54,110.51 432.19,110.35 434.95,110.19 437.70,110.03 440.33,109.88 442.99,109.72 445.75,109.56 448.57,109.40 451.46,109.24 454.24,109.08 457.03,108.92 459.74,108.77 462.62,108.61 465.40,108.45 468.23,108.29 471.13,108.13 474.22,107.97 477.32,107.81 480.43,107.66 483.56,107.50 486.50,107.34 489.54,107.18 492.65,107.02 495.97,106.86 499.45,106.70 502.70,106.55 506.11,106.39 509.58,106.23 513.04,106.07 516.48,105.91 519.93,105.75 523.52,105.59 527.10,105.44 530.78,105.28 534.43,105.12 538.05,104.96 541.64,104.80 545.07,104.64 548.59,104.48 551.69,104.33 555.01,104.17 558.74,104.01 562.17,103.85 565.59,103.69 568.78,103.53 572.33,103.37 576.07,103.22 579.86,103.06 583.18,102.90 586.07,102.74 588.97,102.58 592.40,102.42 595.84,102.26 599.42,102.11 602.42,101.95 606.20,101.79 609.11,101.63 612.63,101.47 616.37,101.31 620.10,101.15 624.28,101.00 628.65,100.84 632.68,100.68 636.66,100.52 640.79,100.36 645.24,100.20 649.86,100.04 654.24,99.89 659.93,99.73 665.67,99.57 671.54,99.41 677.46,99.25 682.36,99.09 688.93,98.93 696.06,98.78 703.92,98.62 710.74,98.46 716.57,98.30 722.81,98.14 733.12,97.98 738.51,97.82 745.01,97.67 753.10,97.51 764.21,97.35 780.77,97.19 797.98,97.03 821.24,96.87 844.58,96.71 887.81,96.56 965.00,96.40"/>
<polyline fill="none" stroke="#009e73" stroke-width="3" points="103.55,129.86 103.83,129.70 104.11,129.54 104.41,129.38 104.71,129.22 105.02,129.06 105.33,128.90 105.66,128.75 105.99,128.59 106.34,128.43 106.69,128.27 107.04,128.11 107.41,127.95 107.78,127.79 108.16,127.64 108.55,127.48 108.95,127.32 109.36,127.16 109.78,127.00 110.20,126.84 110.64,126.68 111.08,126.53 111.53,126.37 111.99,126.21 112.46,126.05 112.94,125.89 113.42,125.73 113.92,125.57 114.42,125.42 114.94,125.26 115.46,125.10 116.00,124.94 116.55,124.78 117.10,124.62 117.66,124.46 118.23,124.31 118.81,124.15 119.40,123.99 120.01,123.83 120.62,123.67 121.24,123.51 121.87,123.35 122.51,123.20 123.17,123.04 123.83,122.88 124.50,122.72 125.19,122.56 125.88,122.40 126.59,122.24 127.30,122.09 128.03,121.93 128.76,121.77 129.51,121.61 130.26,121.45 131.03,121.29 131.81,121.13 132.61,120.98 133.41,120.82 134.23,120.66 135.05,120.50 135.89,120.34 136.74,120.18 137.61,120.02 138.48,119.87 139.37,119.71 140.27,119.55 141.18,119.39 142.10,119.23 143.03,119.07 143.98,118.91 144.94,118.76 145.91,118.60 146.90,118.44 147.90,118.28 148.91,118.12 149.94,117.96 150.98,117.80 152.02,117.65 153.08,117.49 154.15,117.33 155.22,117.17 156.31,117.01 157.42,116.85 158.55,116.69 159.69,116.54 160.84,116.38 162.01,116.22 163.19,116.06 164.38,115.90 165.59,115.74 166.81,115.58 168.04,115.43 169.29,115.27 170.56,115.11 171.83,114.95 173.12,114.79 174.42,114.63 175.74,114.47 177.07,114.32 178.41,114.16 179.77,114.00 181.13,113.84 182.51,113.68 183.90,113.52 185.31,113.36 186.73,113.21 188.17,113.05 189.61,112.89 191.06,112.73 192.53,112.57 194.02,112.41 195.52,112.25 197.04,112.10 198.57,111.94 200.11,111.78 201.66,111.62 203.21,111.46 204.79,111.30 206.36,111.14 207.96,110.99 209.57,110.83 211.20,110.67 212.83,110.51 214.48,110.35 216.14,110.19 217.82,110.03 219.51,109.88 221.19,109.72 222.89,109.56 224.60,109.40 226.33,109.24 228.07,109.08 229.82,108.92 231.59,108.77 233.37,108.61 235.15,108.45 236.94,108.29 238.75,108.13 240.57,107.97 242.40,107.81 244.23,107.66 246.08,107.50 247.94,107.34 249.81,107.18 251.68,107.02 253.56,106.86 255.45,106.70 257.38,106.55 259.33,106.39 261.31,106.23 263.31,106.07 265.30,105.91 267.31,105.75 269.32,105.59 271.34,105.44 273.36,105.28 275.43,105.12 277.51,104.96 279.59,104.80 281.69,104.64 283.80,104.48 285.94,104.33 288.05,104.17 290.16,104.01 292.29,103.85 294.45,103.69 296.62,103.53 298.79,103.37 300.98,103.22 303.18,103.06 305.40,102.90 307.60,102.74 309.85,102.58 312.07,102.42 314.30,102.26 316.61,102.11 318.90,101.95 321.20,101.79 323.47,101.63 325.78,101.47 328.06,101.31 330.37,101.15 332.69,101.00 335.00,100.84 337.35,100.68 339.73,100.52 342.11,100.36 344.44,100.20 346.79,100.04 349.16,99.89 351.56,99.73 353.93,99.57 356.31,99.41 358.73,99.25 361.20,99.09 363.62,98.93 366.04,98.78 368.47,98.62 370.96,98.46 373.48,98.30 376.03,98.14 378.64,97.98 381.20,97.82 383.74,97.67 386.27,97.51 388.73,97.35 391.15,97.19 393.60,97.03 396.19,96.87 398.71,96.71 401.28,96.56 403.89,96.40 406.41,96.24 408.96,96.08 411.65,95.92 414.37,95.76 417.11,95.60 419.90,95.45 422.68,95.29 425.43,95.13 428.19,94.97 430.95,94.81 433.55,94.65 436.26,94.49 439.19,94.34 442.07,94.18 444.90,94.02 447.71,93.86 450.48,93.70 453.33,93.54 456.29,93.38 459.30,93.23 462.27,93.07 465.47,92.91 468.71,92.75 471.89,92.59 474.96,92.43 478.00,92.27 481.22,92.12 484.54,91.96 488.14,91.80 491.64,91.64 495.15,91.48 498.60,91.32 501.92,91.16 505.36,91.01 508.59,90.85 512.04,90.69 515.50,90.53 518.88,90.37 522.19,90.21 525.34,90.05 528.59,89.90 531.84,89.74 535.23,89.58 538.68,89.42 542.65,89.26 546.30,89.10 549.89,88.94 553.91,88.79 557.77,88.63 561.63,88.47 564.78,88.31 568.01,88.15 571.47,87.99 574.80,87.83 578.55,87.68 582.35,87.52 586.41,87.36 590.30,87.20 594.86,87.04 599.61,86.88 603.88,86.72 607.97,86.57 612.14,86.41 615.81,86.25 620.50,86.09 624.59,85.93 628.75,85.77 633.08,85.61 638.00,85.46 642.15,85.30 646.66,85.14 651.42,84.98 656.61,84.82 662.50,84.66 668.23,84.50 673.49,84.35 679.95,84.19 685.48,84.03 691.36,83.87 696.53,83.71 702.61,83.55 709.54,83.39 716.06,83.24 722.42,83.08 732.58,82.92 741.25,82.76 752.65,82.60 759.89,82.44 771.11,82.28 786.48,82.13 800.74,81.97 815.31,81.81 822.94,81.65 832.39,81.49 844.58,81.33 871.30,81.17 882.15,81.02 894.16,80.86 917.08,80.70"/>
<line x1="95" y1="616.8285714285714" x2="965" y2="616.8285714285714" stroke="#bb0000" stroke-width="2" stroke-dasharray="8 6"/>
<text x="103" y="608.8285714285714" font-family="sans-serif" font-size="13" fill="#990000">S=20 (failure observed on every measured operation)</text>
<line x1="120" y1="90" x2="152" y2="90" stroke="#0072b2" stroke-width="4"/>
<text x="162" y="95" font-family="sans-serif" font-size="14">B=2, Z=3</text>
<line x1="120" y1="115" x2="152" y2="115" stroke="#d55e00" stroke-width="4"/>
<text x="162" y="120" font-family="sans-serif" font-size="14">B=4, Z=5</text>
<line x1="120" y1="140" x2="152" y2="140" stroke="#e69f00" stroke-width="4"/>
<text x="162" y="145" font-family="sans-serif" font-size="14">B=4, Z=6</text>
<line x1="120" y1="165" x2="152" y2="165" stroke="#009e73" stroke-width="4"/>
<text x="162" y="170" font-family="sans-serif" font-size="14">B=8, Z=9</text>
<line x1="120" y1="190" x2="152" y2="190" stroke="#cc79a7" stroke-width="4"/>
<text x="162" y="195" font-family="sans-serif" font-size="14">B=8, Z=10</text>
</svg>