<svg xmlns="http://www.w3.org/2000/svg" width="1220" height="760" viewBox="0 0 1220 760">
<rect width="100%" height="100%" fill="white"/>
<text x="610" y="31" text-anchor="middle" font-family="sans-serif" font-size="22" font-weight="600">Cold-start Lane ORAM insertion-demand tail</text>
<text x="610" y="57" text-anchor="middle" font-family="sans-serif" font-size="14" fill="#444">N = 2²⁰, 2²⁵ measured accesses immediately after randomized initialization; no discarded warm-up</text>
<line x1="100.0" y1="90" x2="100.0" y2="680" stroke="#e2e2e2"/>
<text x="100.0" y="705" text-anchor="middle" font-family="sans-serif" font-size="13">0</text>
<line x1="264.0" y1="90" x2="264.0" y2="680" stroke="#e2e2e2"/>
<text x="264.0" y="705" text-anchor="middle" font-family="sans-serif" font-size="13">5</text>
<line x1="428.0" y1="90" x2="428.0" y2="680" stroke="#e2e2e2"/>
<text x="428.0" y="705" text-anchor="middle" font-family="sans-serif" font-size="13">10</text>
<line x1="592.0" y1="90" x2="592.0" y2="680" stroke="#e2e2e2"/>
<text x="592.0" y="705" text-anchor="middle" font-family="sans-serif" font-size="13">15</text>
<line x1="756.0" y1="90" x2="756.0" y2="680" stroke="#e2e2e2"/>
<text x="756.0" y="705" text-anchor="middle" font-family="sans-serif" font-size="13">20</text>
<line x1="920.0" y1="90" x2="920.0" y2="680" stroke="#e2e2e2"/>
<text x="920.0" y="705" text-anchor="middle" font-family="sans-serif" font-size="13">25</text>
<line x1="100" y1="680.0" x2="920" y2="680.0" stroke="#e2e2e2"/>
<text x="88" y="685.0" text-anchor="end" font-family="sans-serif" font-size="13">0</text>
<line x1="100" y1="595.7142857142858" x2="920" y2="595.7142857142858" stroke="#e2e2e2"/>
<text x="88" y="600.7142857142858" text-anchor="end" font-family="sans-serif" font-size="13">5</text>
<line x1="100" y1="511.42857142857144" x2="920" y2="511.42857142857144" stroke="#e2e2e2"/>
<text x="88" y="516.4285714285714" text-anchor="end" font-family="sans-serif" font-size="13">10</text>
<line x1="100" y1="427.1428571428571" x2="920" y2="427.1428571428571" stroke="#e2e2e2"/>
<text x="88" y="432.1428571428571" text-anchor="end" font-family="sans-serif" font-size="13">15</text>
<line x1="100" y1="342.8571428571429" x2="920" y2="342.8571428571429" stroke="#e2e2e2"/>
<text x="88" y="347.8571428571429" text-anchor="end" font-family="sans-serif" font-size="13">20</text>
<line x1="100" y1="258.57142857142856" x2="920" y2="258.57142857142856" stroke="#e2e2e2"/>
<text x="88" y="263.57142857142856" text-anchor="end" font-family="sans-serif" font-size="13">25</text>
<line x1="100" y1="174.28571428571433" x2="920" y2="174.28571428571433" stroke="#e2e2e2"/>
<text x="88" y="179.28571428571433" text-anchor="end" font-family="sans-serif" font-size="13">30</text>
<line x1="100" y1="90.0" x2="920" y2="90.0" stroke="#e2e2e2"/>
<text x="88" y="95.0" text-anchor="end" font-family="sans-serif" font-size="13">35</text>
<line x1="100" y1="90" x2="100" y2="680" stroke="black" stroke-width="1.5"/>
<line x1="100" y1="680" x2="920" y2="680" stroke="black" stroke-width="1.5"/>
<text x="510.0" y="738" text-anchor="middle" font-family="sans-serif" font-size="16">Security exponent k = log₂(1 / Pr[insertion demand &gt; S])</text>
<text x="25" y="385.0" transform="rotate(-90 25 385.0)" text-anchor="middle" font-family="sans-serif" font-size="16">Stash capacity S (blocks)</text>
<polyline fill="none" stroke="#0072b2" stroke-width="2.8" points="112.10,646.29 122.63,629.43 135.02,612.57 149.19,595.71 164.95,578.86 182.14,562.00 200.56,545.14 220.09,528.29 240.62,511.43 262.07,494.57 284.41,477.71 307.47,460.86 331.34,444.00 356.10,427.14 381.47,410.29 406.84,393.43 432.75,376.57 459.32,359.71 486.64,342.86 514.64,326.00 544.74,309.14 576.33,292.29 606.55,275.43 638.17,258.57 667.88,241.71 694.65,224.86 733.94,208.00 764.04,191.14 775.93,174.29 802.41,157.43 835.21,140.57 920.00,123.71"/>
<line x1="965" y1="125" x2="1000" y2="125" stroke="#0072b2" stroke-width="4"/>
<text x="1010" y="130" font-family="sans-serif" font-size="14">Z=3, Y=1, r=1/2</text>
<text x="1010" y="149" font-family="sans-serif" font-size="12" fill="#555">mean/max demand 4.911/34</text>
<polyline fill="none" stroke="#d55e00" stroke-width="2.8" points="130.17,663.14 198.23,646.29 276.58,629.43 351.67,612.57 410.54,595.71 467.19,578.86 523.59,562.00 579.45,545.14 640.30,528.29 706.54,511.43 791.85,494.57 920.00,477.71"/>
<line x1="965" y1="179" x2="1000" y2="179" stroke="#d55e00" stroke-width="4"/>
<text x="1010" y="184" font-family="sans-serif" font-size="14">Z=2, Y=2, r=1/2</text>
<text x="1010" y="203" font-family="sans-serif" font-size="12" fill="#555">mean/max demand 1.685/13</text>
<polyline fill="none" stroke="#009e73" stroke-width="2.8" points="135.23,663.14 211.41,646.29 307.61,629.43 426.47,612.57 504.80,595.71 578.85,578.86 649.94,562.00 727.86,545.14 806.53,528.29 887.20,511.43"/>
<line x1="965" y1="233" x2="1000" y2="233" stroke="#009e73" stroke-width="4"/>
<text x="1010" y="238" font-family="sans-serif" font-size="14">Z=4, Y=1, r=1/2</text>
<text x="1010" y="257" font-family="sans-serif" font-size="12" fill="#555">mean/max demand 1.584/11</text>
<polyline fill="none" stroke="#0072b2" stroke-width="2.8" stroke-dasharray="9 5" points="134.85,663.14 206.25,646.29 281.93,629.43 341.52,612.57 399.94,595.71 459.19,578.86 519.28,562.00 580.34,545.14 646.02,528.29 717.63,511.43 811.04,494.57 920.00,477.71"/>
<line x1="965" y1="287" x2="1000" y2="287" stroke="#0072b2" stroke-width="4" stroke-dasharray="9 5"/>
<text x="1010" y="292" font-family="sans-serif" font-size="14">Z=3, Y=1, r=2/3</text>
<text x="1010" y="311" font-family="sans-serif" font-size="12" fill="#555">mean/max demand 1.615/13</text>
<polyline fill="none" stroke="#d55e00" stroke-width="2.8" stroke-dasharray="9 5" points="142.24,663.14 238.11,646.29 380.00,629.43 475.36,612.57 556.77,595.71 630.07,578.86 713.84,562.00 816.03,545.14"/>
<line x1="965" y1="341" x2="1000" y2="341" stroke="#d55e00" stroke-width="4" stroke-dasharray="9 5"/>
<text x="1010" y="346" font-family="sans-serif" font-size="14">Z=2, Y=2, r=2/3</text>
<text x="1010" y="365" font-family="sans-serif" font-size="12" fill="#555">mean/max demand 1.467/9</text>
<polyline fill="none" stroke="#009e73" stroke-width="2.8" stroke-dasharray="9 5" points="145.52,663.14 247.71,646.29 474.64,629.43 589.48,612.57 693.85,595.71 798.63,578.86 920.00,562.00"/>
<line x1="965" y1="395" x2="1000" y2="395" stroke="#009e73" stroke-width="4" stroke-dasharray="9 5"/>
<text x="1010" y="400" font-family="sans-serif" font-size="14">Z=4, Y=1, r=2/3</text>
<text x="1010" y="419" font-family="sans-serif" font-size="12" fill="#555">mean/max demand 1.427/8</text>
<rect x="950" y="86" width="245" height="355" fill="none" stroke="#cccccc" rx="5"/>
<text x="965" y="476" font-family="sans-serif" font-size="12" fill="#444">solid: r=1/2; dashed: r=2/3</text>
<text x="965" y="500" font-family="sans-serif" font-size="12" fill="#444">Direct resolution: 2⁻²⁵</text>
</svg>